<?xml version="1.0" encoding="UTF-8"?>
<svg width="177px" height="110px" viewBox="0 0 177 110" version="1.1" xmlns="http://www.w3.org/2000/svg" xmlns:xlink="http://www.w3.org/1999/xlink">
    <!-- Generator: Sketch 44.1 (41455) - http://www.bohemiancoding.com/sketch -->
    <title>winner</title>
    <desc>Created with Sketch.</desc>
    <defs></defs>
    <g id="Page-1" stroke="none" stroke-width="1" fill="none" fill-rule="evenodd">
        <g id="HOME--Copy-2" transform="translate(-307.000000, -2153.000000)">
            <g id="winner" transform="translate(308.000000, 2153.000000)">
                <g id="Group" transform="translate(0.000000, 0.714515)" stroke="#04E0DD" fill-rule="nonzero">
                    <path d="M12.5719727,12.8225777 C16.7254883,8.27938482 21.0779297,4.19126508 25.8702637,0.395790301 C26.4338867,-0.050373311 27.2453125,0.483857926 27.0566406,1.17846134 C24.370459,11.0766456 19.6772461,20.8586629 12.4424316,28.1305815 C12.1173828,23.039793 12.1125977,17.9065127 12.5719727,12.8225777 Z" id="Shape"></path>
                    <path d="M12.4427734,28.1343509 C8.26567383,23.0805714 4.67612305,17.855454 1.44204102,12.2143286 C1.0722168,11.5694131 0.0885253906,11.7993484 0.0509277344,12.5426118 C-0.532519531,24.0979752 3.87119141,37.6185831 14.6001953,43.0719223 C13.5310547,38.1579544 12.7606445,33.1572896 12.4427734,28.1343509 Z" id="Shape"></path>
                    <path d="M14.5995117,43.0681529 C17.2282715,37.6453118 20.1708008,32.6000991 23.619873,27.7097759 C24.0290039,27.1296261 24.9467285,27.3955423 24.9764648,28.1055662 C25.3965332,38.0873633 23.6882324,48.6390299 18.9177734,57.4012446 C17.1493164,52.7374299 15.6577148,47.9468252 14.5995117,43.0681529 Z" id="Shape"></path>
                    <path d="M18.9187988,57.4046714 C13.4948242,53.9097231 8.54013672,50.0885476 3.78745117,45.7961932 C3.23920898,45.301027 2.37924805,45.8181245 2.56484375,46.5339738 C5.42807617,57.5712117 13.6161621,68.8976678 25.2734863,70.8982079 C22.8501465,66.559935 20.6793945,62.0568351 18.9187988,57.4046714 Z" id="Shape"></path>
                    <path d="M25.2714355,70.8951238 C26.2216309,64.9791725 27.5806152,59.3356483 29.4724609,53.6934948 C29.6973633,53.022536 30.6479004,53.0095143 30.8837402,53.6770464 C34.192334,63.0416847 35.5325195,73.6067157 33.5364258,83.3160858 C30.5019531,79.3787433 27.6947754,75.2409356 25.2714355,70.8951238 Z" id="Shape"></path>
                    <path d="M33.5384766,83.3191698 C27.3557129,81.5629575 21.5144043,79.3667496 15.7294922,76.6746902 C15.0612793,76.3635408 14.3913574,77.1092029 14.7765625,77.7386979 C20.7245117,87.4634884 31.8602539,95.8830275 43.5890137,94.4321391 C39.9885254,90.9738571 36.5862793,87.2794716 33.5384766,83.3191698 Z" id="Shape"></path>
                    <path d="M43.5862793,94.4297403 C42.7427246,88.4692412 42.3841797,82.6557499 42.5499512,76.6798304 C42.5694336,75.9715199 43.4758789,75.6812737 43.8956055,76.2514859 C49.8196289,84.3036768 54.2390625,94.0850087 55.296582,104.001697 C51.1772461,101.099235 47.2219727,97.9267447 43.5862793,94.4297403 Z" id="Shape"></path>
                    <path d="M162.428027,12.8225777 C158.274512,8.27938482 153.92207,4.19126508 149.129736,0.395790301 C148.566113,-0.050373311 147.754687,0.483857926 147.943359,1.17846134 C150.629541,11.0766456 155.322754,20.8586629 162.557568,28.1305815 C162.882617,23.039793 162.887402,17.9065127 162.428027,12.8225777 Z" id="Shape"></path>
                    <path d="M162.557227,28.1343509 C166.734326,23.0805714 170.323877,17.855454 173.557959,12.2143286 C173.927783,11.5694131 174.911475,11.7993484 174.949072,12.5426118 C175.53252,24.0979752 171.128809,37.6185831 160.399805,43.0719223 C161.468945,38.1579544 162.239355,33.1572896 162.557227,28.1343509 Z" id="Shape"></path>
                    <path d="M160.400488,43.0681529 C157.771729,37.6453118 154.829199,32.6000991 151.380127,27.7097759 C150.970996,27.1296261 150.053271,27.3955423 150.023535,28.1055662 C149.603467,38.0873633 151.311768,48.6390299 156.082227,57.4012446 C157.850684,52.7374299 159.342285,47.9468252 160.400488,43.0681529 Z" id="Shape"></path>
                    <path d="M156.081201,57.4046714 C161.505176,53.9097231 166.459863,50.0885476 171.212549,45.7961932 C171.760791,45.301027 172.620752,45.8181245 172.435156,46.5339738 C169.571924,57.5712117 161.383838,68.8976678 149.726514,70.8982079 C152.149854,66.559935 154.320605,62.0568351 156.081201,57.4046714 Z" id="Shape"></path>
                    <path d="M149.728564,70.8951238 C148.778369,64.9791725 147.419385,59.3356483 145.527539,53.6934948 C145.302637,53.022536 144.3521,53.0095143 144.11626,53.6770464 C140.807666,63.0416847 139.46748,73.6067157 141.463574,83.3160858 C144.498047,79.3787433 147.305225,75.2409356 149.728564,70.8951238 Z" id="Shape"></path>
                    <path d="M141.461523,83.3191698 C147.644287,81.5629575 153.485596,79.3667496 159.270508,76.6746902 C159.938721,76.3635408 160.608643,77.1092029 160.223437,77.7386979 C154.275488,87.4634884 143.139746,95.8830275 131.410986,94.4321391 C135.011475,90.9738571 138.413721,87.2794716 141.461523,83.3191698 Z" id="Shape"></path>
                    <path d="M131.413721,94.4297403 C132.257275,88.4692412 132.61582,82.6557499 132.450049,76.6798304 C132.430566,75.9715199 131.524121,75.6812737 131.104395,76.2514859 C125.180371,84.3036768 120.760938,94.0850087 119.703418,104.001697 C123.822754,101.099235 127.778027,97.9267447 131.413721,94.4297403 Z" id="Shape"></path>
                </g>
                <text id="25" font-family="Muli-ExtraLight, Muli" font-size="48" font-weight="300" letter-spacing="0.144444436" fill="#FFBF64">
                    <tspan x="57" y="58">25</tspan>
                </text>
                <polygon id="Path-12" stroke="#FFBF64" points="59.2497037 102.443508 117.115555 102.443508 121.020371 108.812041 54.370759 108.812041"></polygon>
            </g>
        </g>
    </g>
</svg>