<?xml version="1.0" encoding="UTF-8"?>
<svg width="99px" height="140px" viewBox="0 0 99 140" version="1.1" xmlns="http://www.w3.org/2000/svg" xmlns:xlink="http://www.w3.org/1999/xlink">
    <!-- Generator: Sketch 44.1 (41455) - http://www.bohemiancoding.com/sketch -->
    <title>medal</title>
    <desc>Created with Sketch.</desc>
    <defs></defs>
    <g id="Page-1" stroke="none" stroke-width="1" fill="none" fill-rule="evenodd">
        <g id="HOME--Copy-2" transform="translate(-346.000000, -2611.000000)">
            <g id="medal" transform="translate(347.000000, 2612.000000)">
                <path d="M38.1866033,85.7977377 C33.2395768,84.2478621 29.6488173,82.8140944 27.4143246,81.4964348 C22.7753608,78.7608807 20.9066961,77.695488 21.8083306,78.3002565 L0,120.499402 L22.7710618,118.396649 L33.7922126,138.426625 L48.9767183,109.83149 L63.0798989,138.509251 L74.1010497,118.479275 L96.8721115,120.582028 L74.4404937,78.207507 C73.151324,79.5050226 69.9247172,81.3440795 64.7606732,83.7246779 C61.847782,85.0675061 56.2087397,86.2929561 52.1037053,86.7826979 C49.5083146,87.0923351 44.8692806,86.764015 38.1866033,85.7977377 Z" id="Combined-Shape" stroke="#00B5B3" fill-rule="nonzero"></path>
                <g id="Group" transform="translate(36.871793, 77.892408)"></g>
                <path d="M48.2843594,73.2807622 C31.7921226,73.2807622 18.3764742,59.8676399 18.3764742,43.3865082 C18.3764742,26.9053764 31.7921226,13.4958424 48.2843594,13.4958424 C64.7765962,13.4958424 78.1922446,26.9089647 78.1922446,43.3900965 C78.1922446,59.8712283 64.7765962,73.2807622 48.2843594,73.2807622 Z M69.1635168,36.7696549 L54.6170337,36.7696549 L50.1188246,22.940288 C49.5408424,21.164072 47.0242865,21.164072 46.4463043,22.940288 L41.9516851,36.7696549 L27.405202,36.7696549 C25.5348373,36.7696549 24.7558179,39.1630611 26.2707774,40.2610856 L38.0386381,48.8084524 L33.5440189,62.6378193 C32.9660368,64.4140353 35.0015392,65.8924212 36.5164987,64.7943967 L48.2843594,56.2470299 L60.0522201,64.7943967 C61.5671796,65.8924212 63.6026821,64.4140353 63.0246999,62.6378193 L58.5300807,48.8084524 L70.2979414,40.2610856 C71.809311,39.1630611 71.0338815,36.7696549 69.1635168,36.7696549 Z" id="Combined-Shape" stroke="#FFBF64" fill-rule="nonzero"></path>
                <ellipse id="Oval" stroke="#00B5B3" cx="48.311284" cy="43.4375" rx="43.4046693" ry="43.4375"></ellipse>
            </g>
        </g>
    </g>
</svg>