<?xml version="1.0" encoding="UTF-8"?>
<svg width="23px" height="23px" viewBox="0 0 23 23" version="1.1" xmlns="http://www.w3.org/2000/svg" xmlns:xlink="http://www.w3.org/1999/xlink">
    <!-- Generator: Sketch 44.1 (41455) - http://www.bohemiancoding.com/sketch -->
    <title>call</title>
    <desc>Created with Sketch.</desc>
    <defs></defs>
    <g id="Page-1" stroke="none" stroke-width="1" fill="none" fill-rule="evenodd">
        <g id="Home" transform="translate(-1177.000000, -65.000000)" fill-rule="nonzero" fill="#00B5B3">
            <g id="Group" transform="translate(992.000000, 33.000000)">
                <g id="call" transform="translate(185.000000, 32.000000)">
                    <path d="M22.3561201,17.7104958 L17.7092234,14.6115484 C17.1195178,14.2214451 16.3290441,14.3498058 15.8930753,14.9065134 L14.5394827,16.6468915 C14.3655256,16.8762638 14.0493092,16.942798 13.7976542,16.8030046 L13.5401708,16.6610592 C12.6866153,16.1958136 11.6245802,15.6165991 9.48477315,13.4760299 C7.34496614,11.3354607 6.76458602,10.2726186 6.29934041,9.42063227 L6.15815717,9.16314884 C6.01643592,8.9115387 6.08171468,8.5939773 6.31117666,8.41863032 L8.05038914,7.06544123 C8.60687257,6.62942759 8.73541253,5.83917808 8.34575756,5.24929309 L5.24681019,0.6023964 C4.84747101,0.00170634174 4.04628193,-0.178617245 3.42806165,0.193014334 L1.48489791,1.36027554 C0.874344305,1.71921901 0.426404734,2.30054065 0.235007073,2.98242564 C-0.464721972,5.5319734 0.0616776383,9.93210205 6.54346321,16.4146498 C11.699588,21.5703711 15.5380772,22.956872 18.1763969,22.956872 C18.783588,22.9594724 19.3884028,22.8804744 19.9745665,22.7219851 C20.656586,22.5308116 21.2379973,22.0828272 21.5967166,21.4720943 L22.7651435,19.5300962 C23.1373131,18.9117414 22.9570792,18.1100592 22.3561201,17.7104958 Z M22.1058999,19.137527 L20.940163,21.0806907 C20.6825899,21.5215017 20.2644203,21.8456089 19.7732605,21.9851332 C17.4195938,22.6313301 13.3075704,22.0960982 7.08479265,15.8733204 C0.86201487,9.6505426 0.326827736,5.53887788 0.973024617,3.18485254 C1.11272832,2.69310985 1.43723904,2.27440225 1.87858797,2.01642564 L3.82175171,0.850688798 C4.08999538,0.689285289 4.43773027,0.767521157 4.61101487,1.02818782 L6.29440863,3.5555426 L7.70731701,5.674681 C7.87652169,5.9305504 7.82092715,6.27348802 7.57953924,6.4628233 L5.83992325,7.81601238 C5.31051974,8.22082135 5.15933846,8.95327944 5.48528388,9.53460108 L5.62341838,9.78558353 C6.11238134,10.6823594 6.72028972,11.7979714 8.93967764,14.0170007 C11.1590656,16.2359851 12.274319,16.8439383 13.1706913,17.3328564 L13.4220324,17.4713496 C14.0033092,17.7972502 14.7358121,17.6461137 15.1406211,17.1167102 L16.4938102,15.3770943 C16.6831903,15.1358408 17.0259934,15.0802911 17.2819525,15.2493165 L21.9284457,18.3482638 C22.1892917,18.5214139 22.2675275,18.8693282 22.1058999,19.137527 Z" id="Shape"></path>
                </g>
            </g>
        </g>
    </g>
</svg>