<?xml version="1.0" encoding="UTF-8"?>
<svg width="129px" height="111px" viewBox="0 0 129 111" version="1.1" xmlns="http://www.w3.org/2000/svg" xmlns:xlink="http://www.w3.org/1999/xlink">
    <!-- Generator: Sketch 44.1 (41455) - http://www.bohemiancoding.com/sketch -->
    <title>Group 3</title>
    <desc>Created with Sketch.</desc>
    <defs></defs>
    <g id="Page-1" stroke="none" stroke-width="1" fill="none" fill-rule="evenodd">
        <g id="HOME--Copy-2" transform="translate(-223.000000, -1241.000000)">
            <g id="Group-6" transform="translate(146.000000, 1242.000000)">
                <g id="Group-3" transform="translate(78.000000, 0.000000)">
                    <path d="M33.6191503,94.8051367 L26.1886751,107.509876 L26.1886751,107.509876 C25.9098525,107.986612 26.0702923,108.599112 26.5470274,108.877935 C26.7011021,108.968047 26.8764875,109.015277 27.0549779,109.014725 L106.934112,108.767299 L106.934112,108.767299 C107.486394,108.765588 107.932721,108.316488 107.93101,107.764206 C107.930447,107.582502 107.880387,107.404386 107.786208,107.248994 L68.5407749,42.4954052 L68.5407749,42.4954052 C68.2545203,42.0230951 67.6395822,41.8722674 67.1672722,42.158522 C67.0380985,42.2368107 66.9283381,42.3433444 66.8462309,42.4701251 L37.0778773,88.4351087" id="Path-2" stroke="#04E0DD" stroke-linecap="round"></path>
                    <path d="M92.2902176,68.7584826 L97.3359558,61.7380526 L97.3359558,61.7380526 C97.6582809,61.289583 98.2831334,61.1873226 98.731603,61.5096476 C98.8362422,61.5848541 98.9253596,61.6795761 98.9940522,61.7886023 L127.329918,106.762185 L127.329918,106.762185 C127.624325,107.229457 127.484191,107.84692 127.016919,108.141327 C126.8601,108.240132 126.678907,108.293408 126.493566,108.29521 L107.514958,108.479657" id="Path-3" stroke="#04E0DD" stroke-linecap="round"></path>
                    <g id="Group-2" transform="translate(67.642216, 0.000000)" stroke="#04E0DD">
                        <path d="M16.8785,25.4145189 C9.49576183,28.6327722 4.310262,29.3123738 1.32200054,27.4533235" id="Path-5"></path>
                        <path d="M0.0220614432,42.4870711 L0.0220614432,5.29706061 C6.18737579,8.65804686 13.0214524,8.08662898 20.5242913,3.58280696 C28.0271303,-0.921015056 33.1022497,-0.932276777 35.7496498,3.5490218 L35.7496498,22.264119 C27.8718202,20.7004281 21.2351753,21.9344307 15.8397152,25.9661267" id="Path-4"></path>
                    </g>
                    <path d="M22.3282784,66.2992646 C24.9498173,61.7510829 29.1209381,60.5197769 34.8416406,62.6053466 C37.553135,59.9292933 40.6951645,59.8441286 44.2677289,62.3498525 C48.232343,60.1398065 52.1921074,60.4599062 56.1470219,63.3101515 C62.0793937,67.5855195 52.6523668,74.8552338 48.4600478,72.0033064 C43.4829255,75.4935019 39.043268,75.5356793 35.1410752,72.1298386 C30.6805044,72.4621669 27.6436838,72.2613103 26.0306135,71.5272687 C24.4175432,70.7932271 23.1834315,69.050559 22.3282784,66.2992646 Z" id="Path-6" stroke="#FFBF64" fill="#FFFFFF"></path>
                    <path d="M0,52.197209 C1.63846181,49.3545954 4.24541226,48.5850292 7.82085136,49.8885102 C9.51553538,48.2159769 11.4793038,48.162749 13.7121565,49.7288264 C16.1900404,48.3475477 18.6648931,48.54761 21.1367147,50.3290133 C24.8444471,53.0011183 18.9525552,57.5446898 16.3323559,55.7622351 C13.2216544,57.9436073 10.4468685,57.9699682 8.00799798,55.8413177 C5.22014122,56.0490229 3.32212836,55.9234875 2.31395942,55.4647115 C1.30579047,55.0059355 0.534470665,53.916768 0,52.197209 Z" id="Path-6-Copy" stroke="#FFBF64" fill="#FFFFFF"></path>
                </g>
            </g>
        </g>
    </g>
</svg>