<?xml version="1.0" encoding="UTF-8"?>
<svg width="183px" height="147px" viewBox="0 0 183 147" version="1.1" xmlns="http://www.w3.org/2000/svg" xmlns:xlink="http://www.w3.org/1999/xlink">
    <!-- Generator: Sketch 44.1 (41455) - http://www.bohemiancoding.com/sketch -->
    <title>Group 5</title>
    <desc>Created with Sketch.</desc>
    <defs></defs>
    <g id="Page-1" stroke="none" stroke-width="1" fill="none" fill-rule="evenodd">
        <g id="HOME--Copy-2" transform="translate(-289.000000, -2353.000000)">
            <g id="Group-5" transform="translate(289.000000, 2354.000000)">
                <g id="piggy-bank">
                    <path d="M176.956521,72.4856702 L170.020452,70.2627332 C168.360502,69.7308849 167.071458,68.419688 166.54867,66.7563168 C158.566699,41.3625968 128.92748,29.7007377 99.0933571,29.7007377 C64.1894275,29.7007377 35.894335,45.6584705 35.894335,80.8987217 C35.894335,101.209067 45.8511021,115.434624 61.2342405,123.650393 C61.6126426,123.852567 61.881859,124.211589 61.963015,124.632894 L65.4093751,142.542585 C65.7284584,144.229761 67.2023037,145.451284 68.9186393,145.451284 L80.5565417,145.451284 C82.2728773,145.451284 83.7463967,144.229761 84.0658059,142.542585 L85.9496684,132.585184 C86.0885136,131.85051 86.8042802,131.251817 87.5150994,131.441922 C91.7898392,132.585184 95.8368509,134.410221 100.572598,134.410221 C105.308345,134.410221 109.399545,132.063445 114.814157,130.926705 C115.559585,130.77021 116.285395,131.310509 116.428151,132.063445 L118.410769,142.542585 C118.729853,144.229761 120.203698,145.451284 121.920034,145.451284 L133.557936,145.451284 C135.274272,145.451284 136.747791,144.229761 137.0672,142.542585 L140.646865,123.579958 C140.727695,123.151806 141.002778,122.786914 141.389328,122.586044 C150.524757,117.833975 158.08237,111.296251 162.902516,102.961786 C163.54492,101.851133 164.56051,101.004611 165.782088,100.613306 L176.957499,97.0318894 C179.790463,96.1240624 181.712785,93.4886251 181.712785,90.5124266 L181.712785,79.0051329 C181.711807,76.0289344 179.789811,73.3934971 176.956521,72.4856702 Z" id="Shape" stroke="#04E0DD" fill-rule="nonzero"></path>
                    <g id="Group" transform="translate(141.801787, 25.447187)" fill-rule="nonzero" fill="#04E0DD">
                        <path d="M0.679225037,9.81021996 C0.981623197,8.37410078 1.97458069,7.18007424 3.30836263,6.56913159 C8.43298117,4.22230948 21.4895647,-1.42494017 24.8460172,0.334062064 C29.0492402,2.53685438 26.8475255,26.3170936 20.4425876,29.9468117 C14.2559557,33.4528369 -3.69552403,30.5828273 0.679225037,9.81021996 Z" id="Shape"></path>
                        <path d="M15.639479,61.0904814 C10.6449479,61.0904814 6.58139555,57.0249404 6.58139555,52.0279649 C6.58139555,50.4972013 7.82160153,49.2563883 9.35161635,49.2563883 C10.8816312,49.2563883 12.1218372,50.4972013 12.1218372,52.0279649 C12.1218372,53.968545 13.6998481,55.5469617 15.6391126,55.5469617 C17.5787435,55.5469617 19.1567545,53.968545 19.1567545,52.0279649 C19.1567545,50.4972013 20.3969604,49.2563883 21.9269753,49.2563883 C23.4569901,49.2563883 24.6971961,50.4972013 24.6971961,52.0279649 C24.6979288,57.0249404 20.6343765,61.0904814 15.639479,61.0904814 Z" id="Shape"></path>
                    </g>
                    <path d="M36.1438205,78.2945352 C23.1372752,79.8757937 15.9718713,77.8380581 14.6476088,72.1813285 C12.6612149,63.6962341 22.7709404,57.7716162 28.6763058,65.3913917 C34.5816713,73.0111671 17.347597,87.390224 0.265637683,88.014634" id="Path-2" stroke="#04E0DD"></path>
                    <path d="M97.8074768,45.9683101 C98.143546,45.9683101 100.606225,46.0434609 103.341641,46.2756684 C106.077057,46.507876 106.353093,46.6317541 107.695247,46.7828685 C108.384406,46.8604617 109.78075,47.1385572 110.216873,47.2188594 C110.652996,47.2991615 111.133214,47.5976802 111.47832,47.3717817 C118.528963,42.756589 123.614954,34.8217481 123.614954,25.8074768 C123.614954,11.5544009 112.060553,0 97.8074768,0 C83.5544009,0 72,11.5544009 72,25.8074768 C72,35.0544368 76.8123527,42.8147932 84.1469096,47.3717817 C84.2411332,47.4303232 85.6494755,47.1565313 86.4041641,47.0065232 C87.1588528,46.856515 88.9926886,46.4983116 89.9723877,46.3969826 C91.6515659,46.2233073 94.8553689,45.9683101 97.8074768,45.9683101 Z" id="Oval-3" stroke="#04E0DD" fill="#FFFFFF"></path>
                    <text id="$" font-family="Muli-Light, Muli" font-size="24" font-weight="300" letter-spacing="0.0722222179" fill="#FFBF64">
                        <tspan x="91" y="32">$</tspan>
                    </text>
                </g>
                <path d="M72,51.8893625 C87.3393093,44.2936008 104.695397,44.0452722 124.068264,51.1443765" id="Path-3" stroke="#FFBF64" stroke-linecap="round"></path>
            </g>
        </g>
    </g>
</svg>