<?xml version="1.0" encoding="UTF-8"?>
<svg width="94px" height="110px" viewBox="0 0 94 110" version="1.1" xmlns="http://www.w3.org/2000/svg" xmlns:xlink="http://www.w3.org/1999/xlink">
    <!-- Generator: Sketch 44.1 (41455) - http://www.bohemiancoding.com/sketch -->
    <title>Group 4</title>
    <desc>Created with Sketch.</desc>
    <defs></defs>
    <g id="Page-1" stroke="none" stroke-width="1" fill="none" fill-rule="evenodd">
        <g id="HOME--Copy-2" transform="translate(-1099.000000, -1229.000000)">
            <g id="Group-4" transform="translate(1099.000000, 1230.000000)">
                <path d="M59.9202651,89.8899903 L33.4154551,89.9963195 C32.9549621,80.7342231 31.2327552,75.1239244 28.2488345,73.1654235 C23.7729535,70.2276722 16.2871563,63.2579999 18.404403,49.9004481 C20.5216498,36.5428963 32.988385,25.7711415 47.4980938,26.0947724 C62.0078026,26.4184033 73.3539428,38.0380061 74.6193703,49.710077 C75.8847977,61.382148 66.2084091,72.457568 63.5141534,74.4388205 C61.7179829,75.7596556 60.5200201,80.9100455 59.9202651,89.8899903 Z" id="Path-7" stroke="#04E0DD"></path>
                <path d="M33.6903004,96.518285 L60.0906314,96.518285" id="Path-8" stroke="#04E0DD"></path>
                <path d="M33.2743363,102.343511 L59.6746673,102.343511" id="Path-8" stroke="#04E0DD"></path>
                <path d="M33.6903004,108.16714 L60.0906314,108.16714" id="Path-8" stroke="#04E0DD"></path>
                <path d="M46.5840708,15.5541074 L46.5840708,0" id="Path-10" stroke="#FFBF64" stroke-linecap="round"></path>
                <path d="M79.8584071,34.9492428 L93.4993257,27.4580153" id="Path-11" stroke="#FFBF64" stroke-linecap="round"></path>
                <path d="M13.091147,34.8827272 L0,27.4580153" id="Path-9" stroke="#FFBF64" stroke-linecap="round"></path>
            </g>
        </g>
    </g>
</svg>